<svg id="logo-86" width="40" height="40" viewBox="0 0 40 40" fill="none" xmlns="http://www.w3.org/2000/svg"><path class="ccustom" fill-rule="evenodd" clip-rule="evenodd" d="M 25.6 11.7 C 23.9 10.6 22 10 20 10 V 0 C 24 0 27.8 1.2 31.1 3.4 C 34.4 5.6 37 8.7 38.5 12.3 C 40 16 40.4 20 39.6 23.9 C 38.8 27.8 36.9 31.3 34.1 34.1 C 31.3 36.9 27.8 38.8 23.9 39.6 C 20 40.4 16 40 12.3 38.5 C 8.7 37 5.6 34.4 3.4 31.1 C 1.2 27.8 0 24 0 20 H 10 C 10 22 10.6 23.9 11.7 25.6 C 12.8 27.2 14.3 28.5 16.2 29.2 C 18 30 20 30.2 22 29.8 C 23.9 29.4 25.7 28.5 27.1 27.1 C 28.5 25.7 29.4 23.9 29.8 22 C 30.2 20 30 18 29.2 16.2 C 28.5 14.3 27.2 12.8 25.6 11.7 Z" fill="#007dfc"></path><path class="ccustom" fill-rule="evenodd" clip-rule="evenodd" d="M 10 0 C 10 1.3 9.7 2.6 9.2 3.8 C 8.7 5 8 6.1 7.1 7.1 C 6.1 8 5 8.7 3.8 9.2 C 2.6 9.7 1.3 10 0 10 L 0 20 C 2.6 20 5.2 19.5 7.7 18.5 C 10.1 17.5 12.3 16 14.1 14.1 C 16 12.3 17.5 10.1 18.5 7.7 C 19.5 5.2 20 2.6 20 0 L 10 0 Z" fill="#007dfc"></path></svg>